
<svg width="20" height="20" viewBox="0 0 60 60" fill="red" xmlns="http://www.w3.org/2000/svg">
<g clip-path="url(#clip0_457_2)">
<rect x="13.6025" y="0.600127" width="7" height="14.9025" rx="0.5" transform="rotate(13.0714 13.6025 0.600127)" fill="#2E3238" stroke="#383B40"/>
<rect x="22.1309" y="9.03906" width="7" height="13" rx="0.5" transform="rotate(-90 22.1309 9.03906)" fill="#2E3238" stroke="#383B40"/>
<rect x="26.1328" y="33.0352" width="7" height="9" transform="rotate(-90 26.1328 33.0352)" fill="#2E3238" stroke="#383B40"/>
<rect x="9.47162" y="18.3931" width="7" height="19.8215" rx="0.5" transform="rotate(13.0714 9.47162 18.3931)" fill="#2E3238" stroke="#383B40"/>
<rect x="4.18451" y="41.1743" width="7" height="15.8433" rx="0.5" transform="rotate(13.0714 4.18451 41.1743)" fill="#2E3238" stroke="#383B40"/>
<path d="M10.6251 53.9814C10.259 53.7965 10.259 53.2738 10.6251 53.0889L19.4074 48.6522C19.7399 48.4842 20.1328 48.7259 20.1328 49.0985V57.9718C20.1328 58.3444 19.7399 58.5861 19.4074 58.4181L10.6251 53.9814Z" fill="#2E3238" stroke="#383B40"/>
<path d="M16.6251 29.9814C16.259 29.7965 16.259 29.2738 16.6251 29.0889L25.4074 24.6522C25.7399 24.4842 26.1328 24.7259 26.1328 25.0985V33.9718C26.1328 34.3444 25.7399 34.5861 25.4074 34.4181L16.6251 29.9814Z" fill="#2E3238" stroke="#383B40"/>
<rect x="20.1328" y="57.0352" width="7" height="15" rx="0.5" transform="rotate(-90 20.1328 57.0352)" fill="#2E3238" stroke="#383B40"/>
<mask id="path-10-inside-1_457_2" fill="white">
<path d="M34.1531 25.5464C36.3196 25.5479 38.4645 25.9629 40.4655 26.7677C42.4665 27.5725 44.2844 28.7513 45.8152 30.2368C47.3461 31.7223 48.5601 33.4854 49.3878 35.4254C50.2155 37.3655 50.6407 39.4445 50.6392 41.5437C50.6377 43.643 50.2095 45.7214 49.3791 47.6603C48.5486 49.5991 47.3321 51.3605 45.7992 52.8438C44.2662 54.3271 42.4467 55.5033 40.4445 56.3053C38.4424 57.1072 36.2968 57.5191 34.1303 57.5176L34.136 49.5371C35.2209 49.5379 36.2953 49.3316 37.298 48.93C38.3006 48.5284 39.2117 47.9394 39.9794 47.1966C40.7471 46.4538 41.3563 45.5718 41.7721 44.6009C42.188 43.6299 42.4024 42.5891 42.4032 41.5379C42.4039 40.4866 42.191 39.4455 41.7765 38.474C41.362 37.5025 40.7541 36.6196 39.9875 35.8757C39.2209 35.1318 38.3105 34.5415 37.3085 34.1385C36.3065 33.7355 35.2323 33.5276 34.1474 33.5269L34.1531 25.5464Z"/>
</mask>
<path d="M34.1531 25.5464C36.3196 25.5479 38.4645 25.9629 40.4655 26.7677C42.4665 27.5725 44.2844 28.7513 45.8152 30.2368C47.3461 31.7223 48.5601 33.4854 49.3878 35.4254C50.2155 37.3655 50.6407 39.4445 50.6392 41.5437C50.6377 43.643 50.2095 45.7214 49.3791 47.6603C48.5486 49.5991 47.3321 51.3605 45.7992 52.8438C44.2662 54.3271 42.4467 55.5033 40.4445 56.3053C38.4424 57.1072 36.2968 57.5191 34.1303 57.5176L34.136 49.5371C35.2209 49.5379 36.2953 49.3316 37.298 48.93C38.3006 48.5284 39.2117 47.9394 39.9794 47.1966C40.7471 46.4538 41.3563 45.5718 41.7721 44.6009C42.188 43.6299 42.4024 42.5891 42.4032 41.5379C42.4039 40.4866 42.191 39.4455 41.7765 38.474C41.362 37.5025 40.7541 36.6196 39.9875 35.8757C39.2209 35.1318 38.3105 34.5415 37.3085 34.1385C36.3065 33.7355 35.2323 33.5276 34.1474 33.5269L34.1531 25.5464Z" fill="#2E3238" stroke="#383B40" stroke-width="2" mask="url(#path-10-inside-1_457_2)"/>
<mask id="path-11-inside-2_457_2" fill="white">
<path d="M34.1531 1.54638C36.3196 1.54792 38.4645 1.96293 40.4655 2.76771C42.4665 3.57248 44.2844 4.75127 45.8152 6.23676C47.3461 7.72225 48.5601 9.48536 49.3878 11.4254C50.2155 13.3655 50.6407 15.4445 50.6392 17.5437C50.6377 19.643 50.2095 21.7214 49.3791 23.6603C48.5486 25.5991 47.3321 27.3605 45.7992 28.8438C44.2662 30.3271 42.4467 31.5033 40.4445 32.3053C38.4424 33.1072 36.2968 33.5191 34.1303 33.5176L34.136 25.5371C35.2209 25.5379 36.2953 25.3316 37.298 24.93C38.3006 24.5284 39.2117 23.9394 39.9794 23.1966C40.7471 22.4538 41.3563 21.5718 41.7721 20.6009C42.188 19.6299 42.4024 18.5891 42.4032 17.5379C42.4039 16.4866 42.191 15.4455 41.7765 14.474C41.362 13.5025 40.7541 12.6196 39.9875 11.8757C39.2209 11.1318 38.3105 10.5415 37.3085 10.1385C36.3065 9.73546 35.2323 9.52763 34.1474 9.52686L34.1531 1.54638Z"/>
</mask>
<path d="M34.1531 1.54638C36.3196 1.54792 38.4645 1.96293 40.4655 2.76771C42.4665 3.57248 44.2844 4.75127 45.8152 6.23676C47.3461 7.72225 48.5601 9.48536 49.3878 11.4254C50.2155 13.3655 50.6407 15.4445 50.6392 17.5437C50.6377 19.643 50.2095 21.7214 49.3791 23.6603C48.5486 25.5991 47.3321 27.3605 45.7992 28.8438C44.2662 30.3271 42.4467 31.5033 40.4445 32.3053C38.4424 33.1072 36.2968 33.5191 34.1303 33.5176L34.136 25.5371C35.2209 25.5379 36.2953 25.3316 37.298 24.93C38.3006 24.5284 39.2117 23.9394 39.9794 23.1966C40.7471 22.4538 41.3563 21.5718 41.7721 20.6009C42.188 19.6299 42.4024 18.5891 42.4032 17.5379C42.4039 16.4866 42.191 15.4455 41.7765 14.474C41.362 13.5025 40.7541 12.6196 39.9875 11.8757C39.2209 11.1318 38.3105 10.5415 37.3085 10.1385C36.3065 9.73546 35.2323 9.52763 34.1474 9.52686L34.1531 1.54638Z" fill="#2E3238" stroke="#383B40" stroke-width="2" mask="url(#path-11-inside-2_457_2)"/>
</g>
<defs>
<clipPath id="clip0_457_2">
<rect width="51" height="59" fill="white"/>
</clipPath>
</defs>
</svg>